<?xml version="1.0" encoding="UTF-8"?>
<svg width="244px" height="244px" viewBox="0 0 244 244" version="1.1" xmlns="http://www.w3.org/2000/svg" xmlns:xlink="http://www.w3.org/1999/xlink">
    <!-- Generator: Sketch 48.1 (47250) - http://www.bohemiancoding.com/sketch -->
    <title>Group 2</title>
    <desc>Created with Sketch.</desc>
    <defs></defs>
    <g id="Maintenance-Mode" stroke="none" stroke-width="1" fill="none" fill-rule="evenodd" transform="translate(-23.000000, -23.000000)">
        <g id="Group-2" transform="translate(23.000000, 23.000000)">
            <circle id="Oval-2" fill="#ED524B" cx="122" cy="122" r="122"></circle>
            <g id="Group-Copy-2" transform="translate(45.000000, 57.000000)" fill="#FFFFFF" fill-rule="nonzero">
                <path d="M51.3295679,71.0617839 L20.5180355,40.1337652 C18.6932428,38.3020736 18.6932428,35.3323147 20.5180355,33.5006231 C22.3428283,31.6689315 25.301402,31.6689315 27.1261948,33.5006231 L61.2103976,67.713685 C63.022878,69.5330177 63.0368914,72.4783712 61.2418053,74.314998 L9.17633499,127.585333 C6.26136116,130.567764 1.209201,128.524447 1.16839794,124.34657 L0.000229390165,4.73631875 C-0.0252450145,2.12796233 2.07428698,-0.000148011861 4.67294422,0 L120.327591,0.00658734796 C122.908299,0.00673433747 125.000233,2.10688575 125,4.69735012 L124.99404,71.030679 C124.993807,73.6210821 122.901591,75.7208294 120.320944,75.7205958 C117.740298,75.7203622 115.648459,73.6202361 115.648692,71.029833 L115.65423,9.38700073 L9.39138847,9.38094831 L10.4027517,112.935702 L51.3295679,71.0617839 Z" id="Line-4-Copy"></path>
                <path d="M153.323077,121 C155.90607,121 158,123.014719 158,125.5 C158,127.985281 155.90607,130 153.323077,130 L86.6769231,130 C84.0939298,130 82,127.985281 82,125.5 C82,123.014719 84.0939298,121 86.6769231,121 L153.323077,121 Z" id="Line-5"></path>
                <path d="M120,107 C117.417007,107 115.323077,104.90607 115.323077,102.323077 C115.323077,99.7400836 117.417007,97.6461538 120,97.6461538 C135.820834,97.6461538 148.646154,84.8208339 148.646154,69 C148.646154,53.1791661 135.820834,40.3538462 120,40.3538462 C104.179166,40.3538462 91.3538462,53.1791661 91.3538462,69 C91.3538462,71.5829933 89.2599164,73.6769231 86.6769231,73.6769231 C84.0939298,73.6769231 82,71.5829933 82,69 C82,48.0131795 99.0131795,31 120,31 C140.98682,31 158,48.0131795 158,69 C158,89.9868205 140.98682,107 120,107 Z" id="Oval" transform="translate(120.000000, 69.000000) rotate(135.000000) translate(-120.000000, -69.000000) "></path>
            </g>
        </g>
    </g>
</svg>